<?xml version="1.0" encoding="utf-8"?>
<!-- Generator: Adobe Illustrator 16.0.4, SVG Export Plug-In . SVG Version: 6.00 Build 0)  -->
<!DOCTYPE svg PUBLIC "-//W3C//DTD SVG 1.1//EN" "http://www.w3.org/Graphics/SVG/1.1/DTD/svg11.dtd">
<svg version="1.1" id="Layer_1" xmlns="http://www.w3.org/2000/svg" xmlns:xlink="http://www.w3.org/1999/xlink" x="0px" y="0px"
	 width="300px" height="300px" viewBox="0 0 300 300" style="enable-background:new 0 0 300 300;" xml:space="preserve">
<rect x="85.046" y="0.062" style="fill:#E6E7E8;" width="128.954" height="299.938"/>
<g>
	<path style="fill:#019776;stroke:#CBCCCE;stroke-width:1.8272;" d="M116.188,60.219c2.828,0,5.119-2.289,5.119-5.115
		c0-2.827-2.291-5.118-5.119-5.118c-2.826,0-5.115,2.291-5.115,5.118C111.073,57.93,113.362,60.219,116.188,60.219"/>
	<g>
		<g>
			<circle style="fill:#FFFFFF;stroke:#000000;stroke-width:1.05;stroke-miterlimit:10;" cx="116.189" cy="36.503" r="5.997"/>
		</g>
		<path d="M116.438,33.007c2.502,0,3.59,1.557,3.59,3.436c0,1.969-1.049,3.416-3.779,3.416h-2.834v-6.852H116.438z M115.124,38.603
			h1.113c1.719,0,2.23-1.166,2.23-2.17c0-1.176-0.633-2.17-2.25-2.17h-1.094V38.603z"/>
	</g>
	<g>
		<g>
			<circle style="fill:#FFFFFF;stroke:#000000;stroke-width:1.05;stroke-miterlimit:10;" cx="116.272" cy="17.187" r="5.996"/>
		</g>
		<polygon points="114.187,15.731 117.761,15.731 117.761,20.618 118.747,20.618 118.747,21.325 114.142,21.325 114.142,20.761 
			115.269,20.761 115.269,16.483 114.187,16.483 		"/>
		<path d="M115.081,13.757c0,0.676,0.549,1.223,1.221,1.223c0.678,0,1.221-0.547,1.221-1.223c0-0.674-0.543-1.221-1.221-1.221
			C115.63,12.536,115.081,13.083,115.081,13.757"/>
	</g>
	<rect x="126.692" y="-6.428" style="fill:none;" width="83.91" height="285.504"/>
	<text transform="matrix(1 0 0 1 126.6924 18.9619)"><tspan x="0" y="0" style="font-family:'Interstate-BoldCondensed'; font-size:9;">Information</tspan><tspan x="0" y="19" style="font-family:'Interstate-BoldCondensed'; font-size:9;">Directory</tspan><tspan x="0" y="38" style="font-family:'Interstate-BoldCondensed'; font-size:9;">Learning Station</tspan><tspan x="0" y="57" style="font-family:'Interstate-BoldCondensed'; font-size:9;">Period Rooms</tspan><tspan x="0" y="76" style="font-family:'Interstate-BoldCondensed'; font-size:9;">Restrooms</tspan><tspan x="0" y="95" style="font-family:'Interstate-BoldCondensed'; font-size:9;">Elevator</tspan><tspan x="0" y="114" style="font-family:'Interstate-BoldCondensed'; font-size:9;">Stairs</tspan><tspan x="0" y="133" style="font-family:'Interstate-BoldCondensed'; font-size:9;">Coffee Shop</tspan><tspan x="0" y="152" style="font-family:'Interstate-BoldCondensed'; font-size:9;">Restaurant</tspan><tspan x="0" y="171" style="font-family:'Interstate-BoldCondensed'; font-size:9;">Telephone</tspan><tspan x="0" y="190" style="font-family:'Interstate-BoldCondensed'; font-size:9;">Museum Shop</tspan><tspan x="0" y="209" style="font-family:'Interstate-BoldCondensed'; font-size:9;">Coat Check</tspan><tspan x="0" y="228" style="font-family:'Interstate-BoldCondensed'; font-size:9;">Security</tspan><tspan x="0" y="247" style="font-family:'Interstate-BoldCondensed'; font-size:9;">Fire Exit</tspan></text>
	<g>
		<circle style="fill:#FFFFFF;stroke:#000000;stroke-width:1.05;stroke-miterlimit:10;" cx="116.189" cy="93.124" r="5.997"/>
		<g>
			<path d="M114.546,96.909v-2.35h0.891l-0.943-3.092h0.094c0.135,0.445,0.621,1.781,0.621,1.781
				c0.053,0.137,0.201,0.205,0.338,0.162c0.148-0.039,0.217-0.135,0.176-0.324c0.014-0.012-0.553-1.904-0.648-2.119
				c-0.109-0.244-0.434-0.486-0.635-0.486h-1.324c-0.215,0-0.445,0.203-0.621,0.486c-0.066,0.189-0.539,2.107-0.539,2.107
				c-0.039,0.135,0,0.297,0.135,0.336c0.135,0.043,0.311-0.039,0.363-0.162l0.516-1.781h0.092c0,0-0.795,3.092-0.822,3.092h0.877
				v2.363c0,0.178,0.203,0.297,0.326,0.297c0.119,0,0.324-0.119,0.324-0.311v-2.336h0.121v2.336c0,0.15,0.256,0.283,0.363,0.283
				C114.384,97.192,114.546,97.06,114.546,96.909"/>
			<path d="M119.714,93.454v-2.434c0-0.256-0.338-0.646-0.676-0.646h-1.809c-0.379,0-0.771,0.473-0.771,0.674v2.35
				c0,0.137,0.123,0.258,0.283,0.258c0.191,0,0.338-0.121,0.338-0.244V91.44h0.15v5.416c0,0.203,0.242,0.283,0.35,0.283
				c0.15,0,0.406-0.107,0.406-0.297V93.71h0.174v3.133c0,0.189,0.271,0.324,0.381,0.324c0.162,0,0.404-0.123,0.404-0.297l0.014-5.43
				h0.162v1.984c0,0.123,0.148,0.244,0.309,0.244c0.191,0,0.285-0.121,0.285-0.23V93.454z"/>
			<path d="M113.724,88.97c-0.365,0.012-0.648,0.322-0.635,0.688c0.012,0.365,0.309,0.662,0.676,0.648
				c0.365-0.014,0.674-0.324,0.646-0.703C114.397,89.253,114.089,88.956,113.724,88.97"/>
			<path d="M118.106,88.833c-0.377,0-0.674,0.311-0.66,0.689c0,0.379,0.322,0.676,0.701,0.662c0.363-0.014,0.66-0.324,0.648-0.703
				C118.782,89.104,118.485,88.821,118.106,88.833"/>
		</g>
	</g>
	<g>
		<circle style="fill:#FFFFFF;stroke:#662D91;stroke-width:1.05;stroke-miterlimit:10;" cx="116.19" cy="130.321" r="5.996"/>
		<polyline style="fill:none;stroke:#000000;stroke-width:0.9023;stroke-miterlimit:10;" points="112.948,135.413 114.544,135.413 
			114.544,134.071 116.14,134.071 116.14,132.647 117.62,132.647 117.62,131.196 119.216,131.196 119.216,129.854 120.812,129.854 
			120.812,128.431 121.991,128.431 		"/>
		<g>
			<path d="M114.483,125.47c0.355,0,0.637,0.291,0.623,0.648c0,0.357-0.305,0.639-0.662,0.625c-0.344-0.012-0.623-0.307-0.611-0.664
				C113.845,125.724,114.126,125.456,114.483,125.47"/>
			<path d="M115.784,127.56v-0.002c0-0.051-0.029-0.119-0.076-0.195l-0.004-0.008l-0.002,0.002
				c-0.127-0.199-0.389-0.434-0.646-0.434h-1.451c-0.32,0-0.639,0.371-0.639,0.609v2.283c0,0.104,0.09,0.217,0.27,0.217
				c0.15,0,0.291-0.113,0.291-0.229v-1.875h0.152l0.012,3.789l-0.316,0.656c-0.074,0.146,0.08,0.352,0.219,0.42
				c0.092,0.045,0.377,0.045,0.457-0.115l0.389-0.773l-0.016-0.006c0.002-0.01,0.01-0.018,0.01-0.029v-1.799h0.166v3.539
				c0,0.18,0.24,0.281,0.383,0.281c0.102,0,0.33-0.076,0.33-0.268v-5.662l0.656,1.688c0.041,0.107,0.213,0.164,0.379,0.1
				c0.143-0.057,0.209-0.205,0.162-0.324L115.784,127.56z"/>
		</g>
		<path d="M121.991,128.431h-1.18v1.424h-1.596v1.342h-1.596v1.451h-1.48v1.424h-1.596v1.342h-1.596c0,0,1.605,1.209,3.918,0.896
			s3.418-1.227,4.375-2.625C122.46,131.903,121.991,128.431,121.991,128.431z"/>
	</g>
	<g>
		
			<polygon style="fill:#A2DEF9;stroke:#00C0F3;stroke-width:1.2033;stroke-linecap:round;stroke-linejoin:round;stroke-miterlimit:10;" points="
			117.074,118.589 123.229,115.674 123.229,107.846 117.074,110.764 		"/>
		
			<polygon style="fill:#A2DEF9;stroke:#00C0F3;stroke-width:1.2033;stroke-linecap:round;stroke-linejoin:round;stroke-miterlimit:10;" points="
			117.077,118.561 109.546,114.869 109.546,107.08 117.077,110.771 		"/>
		
			<polygon style="fill:#A2DEF9;stroke:#00C0F3;stroke-width:1.2033;stroke-linecap:round;stroke-linejoin:round;stroke-miterlimit:10;" points="
			117.077,110.771 109.53,107.074 115.694,104.141 123.239,107.838 		"/>
	</g>
	<g>
		<circle style="fill:#FFFFFF;stroke:#000000;stroke-width:1.05;stroke-miterlimit:10;" cx="116.19" cy="168.365" r="5.996"/>
		<g>
			<path d="M115.478,166.203v-1.955c0-0.092,0.074-0.166,0.166-0.166s0.164,0.074,0.164,0.166v2.662
				c0,0.338-0.273,0.613-0.611,0.613c0,0,0,4.424,0,4.717c0,0.254-0.205,0.459-0.459,0.459s-0.459-0.205-0.459-0.459v-4.713
				c-0.342,0-0.623-0.277-0.623-0.617v-2.662c0-0.092,0.074-0.166,0.166-0.166s0.166,0.074,0.166,0.166v1.955h0.275v-1.955
				c0-0.092,0.074-0.166,0.166-0.166s0.164,0.074,0.164,0.166v1.955h0.277v-1.955c0-0.092,0.074-0.166,0.166-0.166
				s0.166,0.074,0.166,0.166v1.955H115.478z"/>
			<path d="M116.837,169.301v-4.539c0-0.391,0.318-0.711,0.711-0.711s0.711,0.32,0.711,0.711c0,0,0,7.186,0,7.479
				c0,0.254-0.205,0.459-0.459,0.459s-0.459-0.205-0.459-0.459v-2.938L116.837,169.301z"/>
		</g>
	</g>
	<g>
		<g>
			<circle style="fill:#FFFFFF;stroke:#000000;stroke-width:1.05;stroke-miterlimit:10;" cx="116.189" cy="187.365" r="5.997"/>
		</g>
		<g>
			<path d="M115.95,182.846c0,0-1.492,0.086-1.49,4.529h1.088c0,0-0.057-2.062,0.518-2.436h0.285v-2.064L115.95,182.846z"/>
			<path d="M115.95,191.906c0,0-1.492-0.086-1.492-4.668h1.092c0,0-0.059,2.258,0.514,2.631h0.287v2.008L115.95,191.906z"/>
			<rect x="116.675" y="182.894" width="0.402" height="2.066"/>
			<rect x="116.642" y="189.86" width="0.402" height="2.064"/>
		</g>
	</g>
	<g>
		<g>
			<circle style="fill:#FFFFFF;stroke:#000000;stroke-width:1.05;stroke-miterlimit:10;" cx="116.237" cy="149.158" r="5.996"/>
		</g>
		<g>
			<path d="M112.212,152.113c0,0.457,0.369,0.828,0.824,0.828h6.441c0.455,0,0.826-0.371,0.826-0.828H112.212z"/>
			<path d="M118.552,151.197c0,0.389-0.314,0.705-0.705,0.705h-3.178c-0.391,0-0.705-0.316-0.705-0.705v-3.15h4.732
				c0.783,0,1.424,0.639,1.424,1.422c0,0.787-0.637,1.422-1.42,1.422h-0.148V151.197 M118.7,150.328
				c0.473,0,0.855-0.385,0.855-0.859c0-0.473-0.383-0.857-0.855-0.857h-0.148v1.717C118.552,150.328,118.638,150.328,118.7,150.328"
				/>
			<path d="M115.755,146.279h0.484c0.439,0,0.795,0.355,0.795,0.795v0.631h-0.416c0,0,0.004-0.334,0.004-0.418
				c0-0.205-0.168-0.371-0.377-0.371h-0.891c-0.359,0-0.65-0.289-0.65-0.646c0-0.076,0.016-0.146,0.037-0.213
				c-0.469,0-0.844-0.381-0.844-0.85c0-0.467,0.518-1.023,0.984-1.023l-0.02,0.709c-0.324,0.193-0.211,0.826,0.652,0.711
				l-0.018,0.402C115.497,146.006,115.528,146.279,115.755,146.279"/>
		</g>
	</g>
	<g>
		<g>
			<circle style="fill:#FFFFFF;stroke:#000000;stroke-width:1.05;stroke-miterlimit:10;" cx="116.247" cy="245.233" r="5.996"/>
		</g>
		<g>
			<polygon points="116.599,240.921 119.118,240.921 119.118,241.6 116.935,241.6 			"/>
			<path d="M116.694,242.327l0.285-0.363h2.145l-0.029,0.508c0,0,0.084,0.945-1.018,0.945c0,0-0.971-0.095-0.971-1.018
				C117.106,242.399,116.985,242.327,116.694,242.327"/>
			<path d="M112.149,247.848v0.709c0,0-0.037,0.254,0.273,0.254h3.328c0,0,0.219-0.036,0.219-0.236v-0.709L112.149,247.848z"/>
			<path d="M118.87,243.874h-2.492c0,0-0.273-0.02-0.455,0.2c-0.182,0.218-2.184,2.837-2.184,2.837s-0.162,0.308,0.129,0.545
				c0,0,0.309,0.309,0.547,0.055c0.236-0.255,2.072-2.62,2.072-2.62s0.129-0.091,0.129,0.092v1.837l2.346-2.945H118.87z"/>
			<path d="M117.179,247.183l2.529-3.256c0,0,0.271-0.017,0.398,0.091c0,0,0.184,0.11,0.184,0.274v4.51h-3.656v-0.98h2.691v-0.639
				H117.179z"/>
		</g>
	</g>
	<g>
		<g>
			<circle style="fill:#FFFFFF;stroke:#000000;stroke-width:1.05;stroke-miterlimit:10;" cx="116.19" cy="225.643" r="5.996"/>
		</g>
		<path d="M120.614,227.077c-0.221-0.801-1.428-1.11-2.008-1.515c-0.555-0.383-1.416-1.186-2.033-1.665v-0.887
			c0-0.419,0.529-0.764,0.506-1.109c-0.037-0.617-0.975-0.826-1.295-0.247c-0.197,0.358-0.148,0.383,0.025,0.383
			c0.121,0,0.172-0.346,0.432-0.42c0.234-0.097,0.455,0.037,0.48,0.346c0.025,0.358-0.494,0.543-0.494,0.974v0.961
			c-0.555,0.419-1.613,1.121-2.244,1.54c-0.529,0.358-1.883,0.752-2.154,1.566c-0.137,0.406,0.553,0.861,0.715,0.518h7.369
			C120.022,227.902,120.739,227.509,120.614,227.077 M116.228,225.18c1.801,0.024,2.822,1.294,3.205,1.947l-6.619-0.014
			C113.282,226.362,114.552,225.155,116.228,225.18"/>
	</g>
	<g>
		<g>
			<circle style="fill:#FFFFFF;stroke:#000000;stroke-width:1.05;stroke-miterlimit:10;" cx="116.19" cy="206.781" r="5.996"/>
		</g>
		<g>
			<path d="M115.856,204.62c0,0-2.867-1.024-1.795-2.001C115.136,201.644,115.856,204.62,115.856,204.62"/>
			<path d="M116.226,204.604c0,0,0.803-2.936,1.855-1.941C119.136,203.658,116.226,204.604,116.226,204.604"/>
			<rect x="112.792" y="205.062" width="3.008" height="2.514"/>
			<rect x="116.345" y="205.062" width="3.008" height="2.514"/>
			<rect x="112.792" y="208.092" width="3.008" height="2.358"/>
			<rect x="116.345" y="208.092" width="3.008" height="2.358"/>
		</g>
	</g>
	<g>
		<path style="fill-rule:evenodd;clip-rule:evenodd;" d="M117.562,262.221c-1.363-4.348-3.707-3.585-3.707-3.585
			s2.115,0.541,1.244,4.414c-0.174,0.776-1.736,1.62-1.387-1.383c-1.156,0.743-2.33,7.148,2.568,6.912
			c4.729-0.23,3.842-8.744,1.492-8.84C118.448,260.816,118.024,262.09,117.562,262.221z"/>
	</g>
	<g>
		<circle style="fill:#808285;" cx="112.92" cy="67.879" r="1.126"/>
		<circle style="fill:#808285;" cx="115.751" cy="67.879" r="1.126"/>
		<circle style="fill:#808285;" cx="118.459" cy="67.879" r="1.126"/>
		<circle style="fill:#808285;" cx="121.213" cy="67.879" r="1.126"/>
		<circle style="fill:#808285;" cx="112.92" cy="70.682" r="1.126"/>
		<circle style="fill:#808285;" cx="115.751" cy="70.682" r="1.126"/>
		<circle style="fill:#808285;" cx="118.459" cy="70.682" r="1.126"/>
		<circle style="fill:#808285;" cx="121.213" cy="70.682" r="1.126"/>
		<circle style="fill:#808285;" cx="112.92" cy="73.375" r="1.126"/>
		<circle style="fill:#808285;" cx="115.751" cy="73.375" r="1.126"/>
		<circle style="fill:#808285;" cx="118.459" cy="73.375" r="1.126"/>
		<circle style="fill:#808285;" cx="121.213" cy="73.375" r="1.126"/>
		<circle style="fill:#808285;" cx="112.92" cy="76.068" r="1.126"/>
		<circle style="fill:#808285;" cx="115.751" cy="76.068" r="1.126"/>
		<circle style="fill:#808285;" cx="118.459" cy="76.068" r="1.126"/>
		<circle style="fill:#808285;" cx="121.213" cy="76.068" r="1.126"/>
	</g>
	<g>
		<g>
			
				<line style="fill:none;stroke:#662D91;stroke-width:1.3326;stroke-linecap:round;stroke-linejoin:round;stroke-dasharray:0.0569,1.7208,0,0,0,0;" x1="151.293" y1="135.095" x2="151.293" y2="125.548"/>
			<g>
				<polygon style="fill:#662D91;" points="153.147,133.774 151.213,140.998 149.275,133.774 				"/>
			</g>
			<g>
				<polygon style="fill:#662D91;" points="153.147,126.868 151.213,119.645 149.275,126.868 				"/>
			</g>
		</g>
	</g>
	<g>
		<g>
			
				<line style="fill:none;stroke:#00AEEF;stroke-width:1.3196;stroke-linecap:round;stroke-linejoin:round;stroke-dasharray:0.0563,1.7039,0,0,0,0;" x1="159.948" y1="115.395" x2="159.948" y2="106.149"/>
			<g>
				<polygon style="fill:#00AEEF;" points="161.784,114.088 159.869,121.24 157.951,114.088 				"/>
			</g>
			<g>
				<polygon style="fill:#00AEEF;" points="161.784,107.456 159.869,100.304 157.951,107.456 				"/>
			</g>
		</g>
	</g>
</g>
</svg>
