<?xml version="1.0" encoding="UTF-8" standalone="no"?>
<!DOCTYPE svg PUBLIC "-//W3C//DTD SVG 1.1//EN" "http://www.w3.org/Graphics/SVG/1.1/DTD/svg11.dtd">
<svg version="1.1" id="Layer_1" xmlns="http://www.w3.org/2000/svg" xmlns:xlink="http://www.w3.org/1999/xlink" x="0px" y="0px" width="24px" height="24px" viewBox="0 0 24 24" enable-background="new 0 0 24 24" xml:space="preserve">
  <g id="marker-stroked-24">
    <path
      style="color:#000000;fill:#ffffff;fill-opacity:1;fill-rule:nonzero;stroke:#ffffff;stroke-width:2;marker:none;visibility:visible;display:inline;overflow:visible;enable-background:accumulate;opacity:0.29999999999999999;stroke-linecap:butt;stroke-linejoin:round;stroke-miterlimit:4;stroke-opacity:1;stroke-dasharray:none;stroke-dashoffset:0"
      d="m 12,2 c -3.22874,0 -6.5,3 -6.5,6.5 0,3.5 5,9.5 6.5,11.5 1.5,-2 6.5,-8 6.5,-11.5 0,-3.5 -3.27126,-6.5 -6.5,-6.5 z m 0,2 c 2.51124,0 4.5,1.77778 4.5,4.5 0,2.72222 -3.33334,6.94444 -4.5,8.5 -1.16666,-1.55556 -4.5,-5.77778 -4.5,-8.5 0,-2.72222 1.98876,-4.5 4.5,-4.5 z" />
    <path
      d="m 12,2 c -3.22874,0 -6.5,3 -6.5,6.5 0,3.5 5,9.5 6.5,11.5 1.5,-2 6.5,-8 6.5,-11.5 0,-3.5 -3.27126,-6.5 -6.5,-6.5 z m 0,2 c 2.51124,0 4.5,1.77778 4.5,4.5 0,2.72222 -3.33334,6.94444 -4.5,8.5 -1.16666,-1.55556 -4.5,-5.77778 -4.5,-8.5 0,-2.72222 1.98876,-4.5 4.5,-4.5 z"
      style="color:#000000;fill:#444444;fill-opacity:1;fill-rule:nonzero;stroke:none;stroke-width:2;marker:none;visibility:visible;display:inline;overflow:visible;enable-background:accumulate" />
  </g>
</svg>
